<svg width="1852" height="1080" viewBox="0 0 1852 1080" fill="none" xmlns="http://www.w3.org/2000/svg">
<path opacity="0.16" d="M85.1742 125.967L300.47 -249.727C342.595 -323.236 433.247 -353.327 510.968 -319.599C604.929 -278.824 640.051 -163.619 584.818 -77.3597L297.597 371.204C274.228 407.701 259.934 449.26 255.909 492.411C237.536 689.393 429.226 839.271 615.96 773.927L621.206 772.092C696.656 745.689 779.859 753.41 849.162 793.244L918.452 833.07C1042.39 904.307 1200.69 849.298 1253.75 716.555C1302.74 593.979 1443.06 535.798 1564.41 587.744L1877.43 721.731C1926.13 742.579 1982.7 730.224 2018.28 690.967C2064.15 640.35 2145.75 647.88 2181.59 706.035L2186.62 714.198C2216.84 763.239 2204.01 827.297 2157.23 860.913L2078.01 917.843C2013.4 964.275 1928.4 971.128 1857.19 935.647L1761.3 887.873C1652.43 833.628 1521.23 893.287 1490.54 1010.99C1461.24 1123.35 1362.73 1203.92 1246.79 1210.34L1149.22 1215.74C1085.7 1219.25 1022.8 1201.61 970.379 1165.56L865.606 1093.51C779.511 1034.31 664.502 1039.8 584.432 1106.92C503.998 1174.35 388.363 1179.55 302.205 1119.61L239.72 1076.13C191.904 1042.86 153.68 997.602 128.883 944.894L61.4163 801.49C21.434 716.505 0.703125 623.743 0.703125 529.822V443.263C0.703125 331.94 29.824 222.554 85.1742 125.967Z" fill="#CBBDFF"/>
</svg>
