<svg width="124" height="62" viewBox="0 0 124 62" fill="none" xmlns="http://www.w3.org/2000/svg">
<path d="M31.8865 53L112.113 53C112.842 53 113.338 53.0866 113.603 53.2597C113.868 53.4329 114 53.7576 114 54.2338V56.7662C114 57.2424 113.868 57.5671 113.603 57.7403C113.338 57.9134 112.842 58 112.113 58L31.8865 58C31.1584 58 30.6619 57.9134 30.3972 57.7403C30.1324 57.5671 30 57.2424 30 56.7662L30 54.2338C30 53.7576 30.1324 53.4329 30.3972 53.2597C30.6619 53.0866 31.1584 53 31.8865 53Z" fill="white"/>
<path d="M20.184 15.28V48.624C20.184 57.1147 16.408 61.36 8.856 61.36C5.61333 61.36 3.05333 60.912 1.176 60.016C0.792 59.8027 0.6 59.568 0.6 59.312C0.6 59.0987 0.621333 58.9067 0.664 58.736L1.944 55.216C2.15733 54.6613 2.56267 54.4907 3.16 54.704C4.568 55.216 6.06133 55.472 7.64 55.472C11.224 55.472 13.016 52.976 13.016 47.984V19.568H9.56C8.92 19.568 8.6 19.248 8.6 18.608V15.28C8.6 14.64 8.92 14.32 9.56 14.32H19.224C19.864 14.32 20.184 14.64 20.184 15.28ZM12.44 8.624C11.6293 7.77066 11.224 6.68266 11.224 5.36C11.224 4.03733 11.6293 2.94933 12.44 2.096C13.2933 1.2 14.4027 0.751999 15.768 0.751999C17.176 0.751999 18.2853 1.2 19.096 2.096C19.9493 2.94933 20.376 4.03733 20.376 5.36C20.376 6.68266 19.9493 7.77066 19.096 8.624C18.2427 9.47733 17.112 9.904 15.704 9.904C14.3387 9.904 13.2507 9.47733 12.44 8.624ZM53.66 40.944H56.476C57.116 40.944 57.436 41.264 57.436 41.904V45.04C57.436 45.68 57.116 46 56.476 46H49.308C48.796 46 48.476 45.68 48.348 45.04L47.772 41.456C45.0413 44.9973 41.4573 46.768 37.02 46.768C30.108 46.768 26.652 43.1413 26.652 35.888V19.568H23.26C22.62 19.568 22.3 19.248 22.3 18.608V15.28C22.3 14.64 22.62 14.32 23.26 14.32H32.86C33.5 14.32 33.82 14.64 33.82 15.28V33.968C33.82 36.528 34.14 38.3627 34.78 39.472C35.4627 40.5387 36.8707 41.072 39.004 41.072C41.18 41.072 42.972 40.432 44.38 39.152C45.788 37.872 46.492 36.4213 46.492 34.8V19.568H42.46C41.82 19.568 41.5 19.248 41.5 18.608V15.28C41.5 14.64 41.82 14.32 42.46 14.32H52.7C53.34 14.32 53.66 14.64 53.66 15.28V40.944ZM56.4525 18.672V15.28C56.4525 14.64 56.7725 14.32 57.4125 14.32H66.1165C66.6712 14.32 67.0125 14.64 67.1405 15.28L67.7165 18.992C70.1058 15.408 73.5192 13.616 77.9565 13.616C84.5698 13.616 87.8765 17.2427 87.8765 24.496V40.944H91.5885C92.2285 40.944 92.5485 41.264 92.5485 41.904V45.04C92.5485 45.68 92.2285 46 91.5885 46H77.6365C76.9965 46 76.6765 45.68 76.6765 45.04V41.904C76.6765 41.264 76.9965 40.944 77.6365 40.944H80.7085V27.696C80.7085 25.008 80.3672 23.0453 79.6845 21.808C79.0018 20.5707 77.5938 19.952 75.4605 19.952C73.3272 19.952 71.5565 20.592 70.1485 21.872C68.7405 23.152 68.0365 24.6027 68.0365 26.224V40.944H72.0045C72.6445 40.944 72.9645 41.264 72.9645 41.904V45.04C72.9645 45.68 72.6445 46 72.0045 46H57.4765C56.8365 46 56.5165 45.68 56.5165 45.04V41.904C56.5165 41.264 56.8365 40.944 57.4765 40.944H60.8685V19.568H57.4125C56.7725 19.568 56.4525 19.2693 56.4525 18.672ZM91.2375 30.64C91.2375 27.44 91.7282 24.6667 92.7095 22.32C93.6908 19.9733 94.9708 18.2027 96.5495 17.008C99.5788 14.7467 102.864 13.616 106.405 13.616C109.008 13.616 111.205 14.0213 112.997 14.832C114.789 15.6427 116.176 16.5813 117.157 17.648C118.181 18.7147 119.035 20.2507 119.717 22.256C120.443 24.2613 120.805 26.608 120.805 29.296C120.805 35.0133 119.355 39.3653 116.453 42.352C113.595 45.296 109.925 46.768 105.445 46.768C100.965 46.768 97.4668 45.424 94.9495 42.736C92.4748 40.0053 91.2375 35.9733 91.2375 30.64ZM105.957 41.52C108.517 41.52 110.373 40.5813 111.525 38.704C112.72 36.784 113.317 33.9467 113.317 30.192C113.317 26.4373 112.72 23.6213 111.525 21.744C110.373 19.824 108.475 18.864 105.829 18.864C100.923 18.864 98.4695 22.32 98.4695 29.232C98.4695 37.424 100.965 41.52 105.957 41.52Z" fill="white"/>
</svg>
