<svg width="124" height="82" viewBox="0 0 124 82" fill="none" xmlns="http://www.w3.org/2000/svg">
<path d="M31.8865 71L112.113 71C112.842 71 113.338 71.0866 113.603 71.2597C113.868 71.4329 114 71.7576 114 72.2338V74.7662C114 75.2424 113.868 75.5671 113.603 75.7403C113.338 75.9134 112.842 76 112.113 76L31.8865 76C31.1584 76 30.6619 75.9134 30.3972 75.7403C30.1324 75.5671 30 75.2424 30 74.7662L30 72.2338C30 71.7576 30.1324 71.4329 30.3972 71.2597C30.6619 71.0866 31.1584 71 31.8865 71Z" fill="white"/>
<path d="M20.184 33.28V66.624C20.184 75.1147 16.408 79.36 8.856 79.36C5.61333 79.36 3.05333 78.912 1.176 78.016C0.792 77.8027 0.6 77.568 0.6 77.312C0.6 77.0987 0.621333 76.9067 0.664 76.736L1.944 73.216C2.15733 72.6613 2.56267 72.4907 3.16 72.704C4.568 73.216 6.06133 73.472 7.64 73.472C11.224 73.472 13.016 70.976 13.016 65.984V37.568H9.56C8.92 37.568 8.6 37.248 8.6 36.608V33.28C8.6 32.64 8.92 32.32 9.56 32.32H19.224C19.864 32.32 20.184 32.64 20.184 33.28ZM12.44 26.624C11.6293 25.7707 11.224 24.6827 11.224 23.36C11.224 22.0373 11.6293 20.9493 12.44 20.096C13.2933 19.2 14.4027 18.752 15.768 18.752C17.176 18.752 18.2853 19.2 19.096 20.096C19.9493 20.9493 20.376 22.0373 20.376 23.36C20.376 24.6827 19.9493 25.7707 19.096 26.624C18.2427 27.4773 17.112 27.904 15.704 27.904C14.3387 27.904 13.2507 27.4773 12.44 26.624ZM53.66 58.944H56.476C57.116 58.944 57.436 59.264 57.436 59.904V63.04C57.436 63.68 57.116 64 56.476 64H49.308C48.796 64 48.476 63.68 48.348 63.04L47.772 59.456C45.0413 62.9973 41.4573 64.768 37.02 64.768C30.108 64.768 26.652 61.1413 26.652 53.888V37.568H23.26C22.62 37.568 22.3 37.248 22.3 36.608V33.28C22.3 32.64 22.62 32.32 23.26 32.32H32.86C33.5 32.32 33.82 32.64 33.82 33.28V51.968C33.82 54.528 34.14 56.3627 34.78 57.472C35.4627 58.5387 36.8707 59.072 39.004 59.072C41.18 59.072 42.972 58.432 44.38 57.152C45.788 55.872 46.492 54.4213 46.492 52.8V37.568H42.46C41.82 37.568 41.5 37.248 41.5 36.608V33.28C41.5 32.64 41.82 32.32 42.46 32.32H52.7C53.34 32.32 53.66 32.64 53.66 33.28V58.944ZM56.4525 36.672V33.28C56.4525 32.64 56.7725 32.32 57.4125 32.32H66.1165C66.6712 32.32 67.0125 32.64 67.1405 33.28L67.7165 36.992C70.1058 33.408 73.5192 31.616 77.9565 31.616C84.5698 31.616 87.8765 35.2427 87.8765 42.496V58.944H91.5885C92.2285 58.944 92.5485 59.264 92.5485 59.904V63.04C92.5485 63.68 92.2285 64 91.5885 64H77.6365C76.9965 64 76.6765 63.68 76.6765 63.04V59.904C76.6765 59.264 76.9965 58.944 77.6365 58.944H80.7085V45.696C80.7085 43.008 80.3672 41.0453 79.6845 39.808C79.0018 38.5707 77.5938 37.952 75.4605 37.952C73.3272 37.952 71.5565 38.592 70.1485 39.872C68.7405 41.152 68.0365 42.6027 68.0365 44.224V58.944H72.0045C72.6445 58.944 72.9645 59.264 72.9645 59.904V63.04C72.9645 63.68 72.6445 64 72.0045 64H57.4765C56.8365 64 56.5165 63.68 56.5165 63.04V59.904C56.5165 59.264 56.8365 58.944 57.4765 58.944H60.8685V37.568H57.4125C56.7725 37.568 56.4525 37.2693 56.4525 36.672ZM91.2375 48.64C91.2375 45.44 91.7282 42.6667 92.7095 40.32C93.6908 37.9733 94.9708 36.2027 96.5495 35.008C99.5788 32.7467 102.864 31.616 106.405 31.616C109.008 31.616 111.205 32.0213 112.997 32.832C114.789 33.6427 116.176 34.5813 117.157 35.648C118.181 36.7147 119.035 38.2507 119.717 40.256C120.443 42.2613 120.805 44.608 120.805 47.296C120.805 53.0133 119.355 57.3653 116.453 60.352C113.595 63.296 109.925 64.768 105.445 64.768C100.965 64.768 97.4668 63.424 94.9495 60.736C92.4748 58.0053 91.2375 53.9733 91.2375 48.64ZM105.957 59.52C108.517 59.52 110.373 58.5813 111.525 56.704C112.72 54.784 113.317 51.9467 113.317 48.192C113.317 44.4373 112.72 41.6213 111.525 39.744C110.373 37.824 108.475 36.864 105.829 36.864C100.923 36.864 98.4695 40.32 98.4695 47.232C98.4695 55.424 100.965 59.52 105.957 59.52Z" fill="white"/>
</svg>
